<svg xmlns="http://www.w3.org/2000/svg" xmlns:v="https://svgstorm.com"
viewBox = "0 0 1000 1000"
width="1000"
height="1000">
<g fill="None" fill-opacity="0.0" stroke="#231F20" stroke-opacity="1.00" stroke-width="0.3"><path d="
M 0.00 1000.00 
L 1000.00 1000.00
L 1000.00 0.00
L 0.00 0.00
L 0.00 1000.00
M 431.00 246.00 
C 442.50 258.37 452.81 268.88 459.92 284.08 C 467.04 299.27 476.19 320.55 471.00 337.00
C 461.19 309.27 437.93 285.02 412.00 271.00
C 417.10 262.38 422.87 251.82 431.00 246.00
M 588.00 271.00 
C 562.03 285.06 538.83 309.25 529.00 337.00
C 523.85 320.61 532.78 299.99 539.77 284.77 C 546.77 269.55 557.43 258.28 569.00 246.00
C 577.12 251.84 582.91 262.37 588.00 271.00
M 527.00 309.00 
C 523.84 323.32 522.09 340.18 527.00 354.00
C 531.60 342.17 532.28 329.53 540.75 318.75 C 549.22 307.98 561.77 318.65 572.25 325.75 C 582.72 332.86 587.92 348.13 587.00 361.00 C 586.08 373.87 583.53 388.40 575.75 398.75 C 567.96 409.09 560.39 416.50 548.92 421.92 C 537.45 427.34 523.98 433.37 512.00 433.00
C 524.61 424.09 524.96 409.68 529.31 395.31 C 533.65 380.93 547.16 377.07 554.92 365.92 C 562.68 354.77 552.17 332.88 546.00 323.00
C 536.00 336.83 531.81 354.89 528.00 371.00
C 517.17 354.89 516.72 334.14 519.00 315.00
C 505.62 317.15 494.41 317.16 481.00 315.00
C 483.29 334.14 482.83 354.89 472.00 371.00
C 468.19 354.85 463.99 336.82 454.00 323.00
C 447.81 333.03 437.72 353.64 444.93 365.07 C 452.13 376.50 465.64 380.47 470.31 394.70 C 474.97 408.92 475.33 424.07 488.00 433.00
C 476.05 433.41 463.26 427.48 451.77 422.23 C 440.28 416.97 432.58 409.52 424.70 399.30 C 416.81 389.09 413.69 373.81 413.00 361.00 C 412.31 348.19 417.02 333.32 427.25 326.25 C 437.48 319.18 450.02 307.93 458.92 318.08 C 467.82 328.23 468.15 342.60 473.00 354.00
C 478.23 340.10 475.49 323.48 473.00 309.00
C 491.00 309.00 509.00 309.00 527.00 309.00
M 387.00 449.00 
C 383.08 445.08 378.87 440.87 375.00 437.00
C 339.60 406.75 299.95 382.65 255.00 372.00
C 261.14 427.29 307.10 467.89 347.00 504.00
C 262.68 493.85 216.68 403.68 208.00 328.00
C 301.46 325.03 400.15 388.42 414.00 485.00
C 405.86 472.69 397.13 460.27 387.00 449.00
M 626.00 436.00 
C 622.41 439.59 618.54 443.46 615.00 447.00
C 604.45 459.35 594.33 471.63 586.00 485.00
C 594.24 440.03 616.44 401.48 654.23 372.23 C 692.02 342.98 743.50 328.47 792.00 328.00
C 783.35 403.64 737.30 493.88 653.00 504.00
C 693.02 467.83 738.70 427.30 745.00 372.00
C 701.20 383.20 660.29 405.36 626.00 436.00
M 409.00 355.00 
C 409.83 369.74 412.27 389.19 420.92 401.08 C 429.56 412.97 437.46 423.75 452.08 427.92 C 466.69 432.09 473.40 442.57 482.25 455.75 C 491.09 468.94 508.86 469.09 517.75 455.75 C 526.65 442.41 533.21 432.22 548.07 428.07 C 562.94 423.93 570.09 412.66 578.92 400.92 C 587.75 389.19 589.70 368.94 592.00 355.00
C 595.51 375.56 594.76 398.21 585.70 416.69 C 576.63 435.18 557.99 441.50 539.00 443.00
C 537.08 461.42 522.45 491.01 499.99 490.99 C 477.53 490.97 462.93 461.46 461.00 443.00
C 442.36 441.53 423.05 435.15 414.23 416.77 C 405.41 398.39 403.57 374.61 409.00 355.00
M 459.00 450.00 
C 460.42 460.10 463.48 470.49 471.00 478.00
C 457.13 482.71 448.56 499.68 456.00 513.00
C 436.60 497.12 437.96 463.37 459.00 450.00
M 544.00 513.00 
C 551.45 499.73 542.86 482.68 529.00 478.00
C 536.56 470.44 539.54 460.16 541.00 450.00
C 562.12 463.32 563.34 497.17 544.00 513.00
M 428.00 487.00 
C 431.27 496.97 436.71 505.48 442.92 514.08 C 449.12 522.69 455.85 528.53 463.25 536.75 C 470.65 544.97 478.75 547.77 486.70 556.30 C 494.64 564.84 504.72 565.32 512.75 556.75 C 520.78 548.17 528.88 545.61 536.25 537.25 C 543.61 528.89 550.53 523.48 556.75 514.75 C 562.97 506.02 568.44 496.99 572.00 487.00
C 578.46 498.51 576.78 511.23 580.99 524.01 C 585.20 536.78 583.28 549.95 571.92 556.92 C 560.56 563.89 555.95 569.53 545.30 576.30 C 534.66 583.07 527.21 586.36 516.31 593.31 C 505.40 600.25 495.24 600.82 484.31 593.70 C 473.37 586.57 466.02 583.48 455.25 576.75 C 444.49 570.01 440.19 564.21 428.75 557.25 C 417.32 550.29 414.56 538.06 418.98 524.98 C 423.39 511.89 421.18 498.76 428.00 487.00
M 389.00 520.00 
C 328.35 514.63 268.32 546.07 233.00 596.00
C 263.91 609.92 300.36 610.79 334.00 610.00
C 293.25 643.90 234.02 634.66 189.00 616.00
C 217.83 536.68 309.24 495.52 389.00 520.00
M 811.00 616.00 
C 765.98 634.66 706.73 643.89 666.00 610.00
C 699.75 610.81 736.03 609.94 767.00 596.00
C 731.46 546.81 672.55 513.48 611.00 521.00
C 689.78 494.24 782.44 537.11 811.00 616.00
M 412.00 566.00 
C 418.73 574.71 426.94 583.83 436.23 589.77 C 445.52 595.71 455.57 604.42 466.08 607.92 C 476.58 611.43 488.85 621.88 500.07 621.93 C 511.29 621.97 523.18 611.24 533.69 607.70 C 544.21 604.15 554.53 595.86 563.75 589.75 C 572.96 583.63 581.40 574.83 588.00 566.00
C 590.13 584.39 589.71 608.68 573.25 619.25 C 556.80 629.83 545.40 635.16 527.92 643.92 C 510.45 652.68 490.36 652.97 472.78 644.22 C 455.19 635.48 444.05 630.21 427.30 619.70 C 410.56 609.19 409.58 584.64 412.00 566.00
M 583.00 637.00 
C 581.58 648.62 577.74 660.92 573.68 671.68 C 569.61 682.44 564.06 690.49 558.25 700.25 C 552.44 710.00 545.95 716.29 538.25 725.25 C 530.55 734.21 523.04 737.00 514.30 745.30 C 505.57 753.60 494.92 754.58 485.92 746.08 C 476.92 737.58 470.26 734.53 462.25 725.75 C 454.23 716.97 448.09 710.61 442.08 700.92 C 436.07 691.23 430.81 683.16 426.70 672.31 C 422.58 661.45 418.19 648.90 417.00 637.00
C 426.89 644.61 435.97 649.09 447.08 654.92 C 458.18 660.76 469.75 663.68 481.23 669.77 C 492.71 675.86 506.49 676.13 518.02 670.02 C 529.56 663.91 541.05 661.09 552.22 655.22 C 563.39 649.35 573.09 644.74 583.00 637.00 Z"/>
</g>
<g fill="None" fill-opacity="0.0" stroke="#F9DA6F" stroke-opacity="1.00" stroke-width="0.3"><path d="
M 431.00 246.00 
C 422.87 251.82 417.10 262.38 412.00 271.00
C 437.93 285.02 461.19 309.27 471.00 337.00
C 476.19 320.55 467.04 299.27 459.92 284.08 C 452.81 268.88 442.50 258.37 431.00 246.00 Z"/>
</g>
<g fill="None" fill-opacity="0.0" stroke="#F9DA6F" stroke-opacity="1.00" stroke-width="0.3"><path d="
M 588.00 271.00 
C 582.91 262.37 577.12 251.84 569.00 246.00
C 557.43 258.28 546.77 269.55 539.77 284.77 C 532.78 299.99 523.85 320.61 529.00 337.00
C 538.83 309.25 562.03 285.06 588.00 271.00 Z"/>
</g>
<g fill="None" fill-opacity="0.0" stroke="#F8D96F" stroke-opacity="1.00" stroke-width="0.3"><path d="
M 527.00 309.00 
C 509.00 309.00 491.00 309.00 473.00 309.00
C 475.49 323.48 478.23 340.10 473.00 354.00
C 468.15 342.60 467.82 328.23 458.92 318.08 C 450.02 307.93 437.48 319.18 427.25 326.25 C 417.02 333.32 412.31 348.19 413.00 361.00 C 413.69 373.81 416.81 389.09 424.70 399.30 C 432.58 409.52 440.28 416.97 451.77 422.23 C 463.26 427.48 476.05 433.41 488.00 433.00
C 475.33 424.07 474.97 408.92 470.31 394.70 C 465.64 380.47 452.13 376.50 444.93 365.07 C 437.72 353.64 447.81 333.03 454.00 323.00
C 463.99 336.82 468.19 354.85 472.00 371.00
C 482.83 354.89 483.29 334.14 481.00 315.00
C 494.41 317.16 505.62 317.15 519.00 315.00
C 516.72 334.14 517.17 354.89 528.00 371.00
C 531.81 354.89 536.00 336.83 546.00 323.00
C 552.17 332.88 562.68 354.77 554.92 365.92 C 547.16 377.07 533.65 380.93 529.31 395.31 C 524.96 409.68 524.61 424.09 512.00 433.00
C 523.98 433.37 537.45 427.34 548.92 421.92 C 560.39 416.50 567.96 409.09 575.75 398.75 C 583.53 388.40 586.08 373.87 587.00 361.00 C 587.92 348.13 582.72 332.86 572.25 325.75 C 561.77 318.65 549.22 307.98 540.75 318.75 C 532.28 329.53 531.60 342.17 527.00 354.00
C 522.09 340.18 523.84 323.32 527.00 309.00
M 470.00 421.00 
C 447.40 418.36 431.79 396.29 426.00 376.00
C 454.79 372.08 458.62 403.42 470.00 421.00
M 574.00 376.00 
C 568.20 396.27 552.61 418.38 530.00 421.00
C 541.44 403.45 545.22 372.08 574.00 376.00 Z"/>
</g>
<g fill="None" fill-opacity="0.0" stroke="#FCDC71" stroke-opacity="1.00" stroke-width="0.3"><path d="
M 375.00 437.00 
C 379.29 440.66 383.38 444.76 387.00 449.00
C 397.13 460.27 405.86 472.69 414.00 485.00
C 400.15 388.42 301.46 325.03 208.00 328.00
C 216.68 403.68 262.68 493.85 347.00 504.00
C 307.10 467.89 261.14 427.29 255.00 372.00
C 299.95 382.65 339.60 406.75 375.00 437.00 Z"/>
</g>
<g fill="None" fill-opacity="0.0" stroke="#FCDC71" stroke-opacity="1.00" stroke-width="0.3"><path d="
M 615.00 447.00 
C 618.37 443.06 622.11 439.33 626.00 436.00
C 660.29 405.36 701.20 383.20 745.00 372.00
C 738.70 427.30 693.02 467.83 653.00 504.00
C 737.30 493.88 783.35 403.64 792.00 328.00
C 743.50 328.47 692.02 342.98 654.23 372.23 C 616.44 401.48 594.24 440.03 586.00 485.00
C 594.33 471.63 604.45 459.35 615.00 447.00 Z"/>
</g>
<g fill="None" fill-opacity="0.0" stroke="#F8D96F" stroke-opacity="1.00" stroke-width="0.3"><path d="
M 409.00 355.00 
C 403.57 374.61 405.41 398.39 414.23 416.77 C 423.05 435.15 442.36 441.53 461.00 443.00
C 462.93 461.46 477.53 490.97 499.99 490.99 C 522.45 491.01 537.08 461.42 539.00 443.00
C 557.99 441.50 576.63 435.18 585.70 416.69 C 594.76 398.21 595.51 375.56 592.00 355.00
C 589.70 368.94 587.75 389.19 578.92 400.92 C 570.09 412.66 562.94 423.93 548.07 428.07 C 533.21 432.22 526.65 442.41 517.75 455.75 C 508.86 469.09 491.09 468.94 482.25 455.75 C 473.40 442.57 466.69 432.09 452.08 427.92 C 437.46 423.75 429.56 412.97 420.92 401.08 C 412.27 389.19 409.83 369.74 409.00 355.00 Z"/>
</g>
<g fill="None" fill-opacity="0.0" stroke="#262121" stroke-opacity="1.00" stroke-width="0.3"><path d="
M 470.00 421.00 
C 458.62 403.42 454.79 372.08 426.00 376.00
C 431.79 396.29 447.40 418.36 470.00 421.00 Z"/>
</g>
<g fill="None" fill-opacity="0.0" stroke="#262121" stroke-opacity="1.00" stroke-width="0.3"><path d="
M 574.00 376.00 
C 545.22 372.08 541.44 403.45 530.00 421.00
C 552.61 418.38 568.20 396.27 574.00 376.00 Z"/>
</g>
<g fill="None" fill-opacity="0.0" stroke="#8B7942" stroke-opacity="1.00" stroke-width="0.3"><path d="
M 615.00 447.00 
C 618.54 443.46 622.41 439.59 626.00 436.00
C 622.11 439.33 618.37 443.06 615.00 447.00 Z"/>
</g>
<g fill="None" fill-opacity="0.0" stroke="#897741" stroke-opacity="1.00" stroke-width="0.3"><path d="
M 387.00 449.00 
C 383.38 444.76 379.29 440.66 375.00 437.00
C 378.87 440.87 383.08 445.08 387.00 449.00 Z"/>
</g>
<g fill="None" fill-opacity="0.0" stroke="#F8D96F" stroke-opacity="1.00" stroke-width="0.3"><path d="
M 459.00 450.00 
C 437.96 463.37 436.60 497.12 456.00 513.00
C 448.56 499.68 457.13 482.71 471.00 478.00
C 463.48 470.49 460.42 460.10 459.00 450.00 Z"/>
</g>
<g fill="None" fill-opacity="0.0" stroke="#F8D96F" stroke-opacity="1.00" stroke-width="0.3"><path d="
M 544.00 513.00 
C 563.34 497.17 562.12 463.32 541.00 450.00
C 539.54 460.16 536.56 470.44 529.00 478.00
C 542.86 482.68 551.45 499.73 544.00 513.00 Z"/>
</g>
<g fill="None" fill-opacity="0.0" stroke="#FCDC71" stroke-opacity="1.00" stroke-width="0.3"><path d="
M 428.00 487.00 
C 421.18 498.76 423.39 511.89 418.98 524.98 C 414.56 538.06 417.32 550.29 428.75 557.25 C 440.19 564.21 444.49 570.01 455.25 576.75 C 466.02 583.48 473.37 586.57 484.31 593.70 C 495.24 600.82 505.40 600.25 516.31 593.31 C 527.21 586.36 534.66 583.07 545.30 576.30 C 555.95 569.53 560.56 563.89 571.92 556.92 C 583.28 549.95 585.20 536.78 580.99 524.01 C 576.78 511.23 578.46 498.51 572.00 487.00
C 568.44 496.99 562.97 506.02 556.75 514.75 C 550.53 523.48 543.61 528.89 536.25 537.25 C 528.88 545.61 520.78 548.17 512.75 556.75 C 504.72 565.32 494.64 564.84 486.70 556.30 C 478.75 547.77 470.65 544.97 463.25 536.75 C 455.85 528.53 449.12 522.69 442.92 514.08 C 436.71 505.48 431.27 496.97 428.00 487.00 Z"/>
</g>
<g fill="None" fill-opacity="0.0" stroke="#FADB70" stroke-opacity="1.00" stroke-width="0.3"><path d="
M 389.00 520.00 
C 309.24 495.52 217.83 536.68 189.00 616.00
C 234.02 634.66 293.25 643.90 334.00 610.00
C 300.36 610.79 263.91 609.92 233.00 596.00
C 268.32 546.07 328.35 514.63 389.00 520.00 Z"/>
</g>
<g fill="None" fill-opacity="0.0" stroke="#FBDB70" stroke-opacity="1.00" stroke-width="0.3"><path d="
M 811.00 616.00 
C 782.44 537.11 689.78 494.24 611.00 521.00
C 672.55 513.48 731.46 546.81 767.00 596.00
C 736.03 609.94 699.75 610.81 666.00 610.00
C 706.73 643.89 765.98 634.66 811.00 616.00 Z"/>
</g>
<g fill="None" fill-opacity="0.0" stroke="#FBDC70" stroke-opacity="1.00" stroke-width="0.3"><path d="
M 412.00 566.00 
C 409.58 584.64 410.56 609.19 427.30 619.70 C 444.05 630.21 455.19 635.48 472.78 644.22 C 490.36 652.97 510.45 652.68 527.92 643.92 C 545.40 635.16 556.80 629.83 573.25 619.25 C 589.71 608.68 590.13 584.39 588.00 566.00
C 581.40 574.83 572.96 583.63 563.75 589.75 C 554.53 595.86 544.21 604.15 533.69 607.70 C 523.18 611.24 511.29 621.97 500.07 621.93 C 488.85 621.88 476.58 611.43 466.08 607.92 C 455.57 604.42 445.52 595.71 436.23 589.77 C 426.94 583.83 418.73 574.71 412.00 566.00 Z"/>
</g>
<g fill="None" fill-opacity="0.0" stroke="#FCDD71" stroke-opacity="1.00" stroke-width="0.3"><path d="
M 583.00 637.00 
C 573.09 644.74 563.39 649.35 552.22 655.22 C 541.05 661.09 529.56 663.91 518.02 670.02 C 506.49 676.13 492.71 675.86 481.23 669.77 C 469.75 663.68 458.18 660.76 447.08 654.92 C 435.97 649.09 426.89 644.61 417.00 637.00
C 418.19 648.90 422.58 661.45 426.70 672.31 C 430.81 683.16 436.07 691.23 442.08 700.92 C 448.09 710.61 454.23 716.97 462.25 725.75 C 470.26 734.53 476.92 737.58 485.92 746.08 C 494.92 754.58 505.57 753.60 514.30 745.30 C 523.04 737.00 530.55 734.21 538.25 725.25 C 545.95 716.29 552.44 710.00 558.25 700.25 C 564.06 690.49 569.61 682.44 573.68 671.68 C 577.74 660.92 581.58 648.62 583.00 637.00 Z"/>
</g>
<g fill="#231F20" fill-opacity="1.00" stroke="None">
<path d="
M 0.00 1000.00 
L 1000.00 1000.00
L 1000.00 0.00
L 0.00 0.00
L 0.00 1000.00
M 431.00 246.00 
C 442.50 258.37 452.81 268.88 459.92 284.08 C 467.04 299.27 476.19 320.55 471.00 337.00
C 461.19 309.27 437.93 285.02 412.00 271.00
C 417.10 262.38 422.87 251.82 431.00 246.00
M 588.00 271.00 
C 562.03 285.06 538.83 309.25 529.00 337.00
C 523.85 320.61 532.78 299.99 539.77 284.77 C 546.77 269.55 557.43 258.28 569.00 246.00
C 577.12 251.84 582.91 262.37 588.00 271.00
M 527.00 309.00 
C 523.84 323.32 522.09 340.18 527.00 354.00
C 531.60 342.17 532.28 329.53 540.75 318.75 C 549.22 307.98 561.77 318.65 572.25 325.75 C 582.72 332.86 587.92 348.13 587.00 361.00 C 586.08 373.87 583.53 388.40 575.75 398.75 C 567.96 409.09 560.39 416.50 548.92 421.92 C 537.45 427.34 523.98 433.37 512.00 433.00
C 524.61 424.09 524.96 409.68 529.31 395.31 C 533.65 380.93 547.16 377.07 554.92 365.92 C 562.68 354.77 552.17 332.88 546.00 323.00
C 536.00 336.83 531.81 354.89 528.00 371.00
C 517.17 354.89 516.72 334.14 519.00 315.00
C 505.62 317.15 494.41 317.16 481.00 315.00
C 483.29 334.14 482.83 354.89 472.00 371.00
C 468.19 354.85 463.99 336.82 454.00 323.00
C 447.81 333.03 437.72 353.64 444.93 365.07 C 452.13 376.50 465.64 380.47 470.31 394.70 C 474.97 408.92 475.33 424.07 488.00 433.00
C 476.05 433.41 463.26 427.48 451.77 422.23 C 440.28 416.97 432.58 409.52 424.70 399.30 C 416.81 389.09 413.69 373.81 413.00 361.00 C 412.31 348.19 417.02 333.32 427.25 326.25 C 437.48 319.18 450.02 307.93 458.92 318.08 C 467.82 328.23 468.15 342.60 473.00 354.00
C 478.23 340.10 475.49 323.48 473.00 309.00
C 491.00 309.00 509.00 309.00 527.00 309.00
M 387.00 449.00 
C 383.08 445.08 378.87 440.87 375.00 437.00
C 339.60 406.75 299.95 382.65 255.00 372.00
C 261.14 427.29 307.10 467.89 347.00 504.00
C 262.68 493.85 216.68 403.68 208.00 328.00
C 301.46 325.03 400.15 388.42 414.00 485.00
C 405.86 472.69 397.13 460.27 387.00 449.00
M 626.00 436.00 
C 622.41 439.59 618.54 443.46 615.00 447.00
C 604.45 459.35 594.33 471.63 586.00 485.00
C 594.24 440.03 616.44 401.48 654.23 372.23 C 692.02 342.98 743.50 328.47 792.00 328.00
C 783.35 403.64 737.30 493.88 653.00 504.00
C 693.02 467.83 738.70 427.30 745.00 372.00
C 701.20 383.20 660.29 405.36 626.00 436.00
M 409.00 355.00 
C 409.83 369.74 412.27 389.19 420.92 401.08 C 429.56 412.97 437.46 423.75 452.08 427.92 C 466.69 432.09 473.40 442.57 482.25 455.75 C 491.09 468.94 508.86 469.09 517.75 455.75 C 526.65 442.41 533.21 432.22 548.07 428.07 C 562.94 423.93 570.09 412.66 578.92 400.92 C 587.75 389.19 589.70 368.94 592.00 355.00
C 595.51 375.56 594.76 398.21 585.70 416.69 C 576.63 435.18 557.99 441.50 539.00 443.00
C 537.08 461.42 522.45 491.01 499.99 490.99 C 477.53 490.97 462.93 461.46 461.00 443.00
C 442.36 441.53 423.05 435.15 414.23 416.77 C 405.41 398.39 403.57 374.61 409.00 355.00
M 459.00 450.00 
C 460.42 460.10 463.48 470.49 471.00 478.00
C 457.13 482.71 448.56 499.68 456.00 513.00
C 436.60 497.12 437.96 463.37 459.00 450.00
M 544.00 513.00 
C 551.45 499.73 542.86 482.68 529.00 478.00
C 536.56 470.44 539.54 460.16 541.00 450.00
C 562.12 463.32 563.34 497.17 544.00 513.00
M 428.00 487.00 
C 431.27 496.97 436.71 505.48 442.92 514.08 C 449.12 522.69 455.85 528.53 463.25 536.75 C 470.65 544.97 478.75 547.77 486.70 556.30 C 494.64 564.84 504.72 565.32 512.75 556.75 C 520.78 548.17 528.88 545.61 536.25 537.25 C 543.61 528.89 550.53 523.48 556.75 514.75 C 562.97 506.02 568.44 496.99 572.00 487.00
C 578.46 498.51 576.78 511.23 580.99 524.01 C 585.20 536.78 583.28 549.95 571.92 556.92 C 560.56 563.89 555.95 569.53 545.30 576.30 C 534.66 583.07 527.21 586.36 516.31 593.31 C 505.40 600.25 495.24 600.82 484.31 593.70 C 473.37 586.57 466.02 583.48 455.25 576.75 C 444.49 570.01 440.19 564.21 428.75 557.25 C 417.32 550.29 414.56 538.06 418.98 524.98 C 423.39 511.89 421.18 498.76 428.00 487.00
M 389.00 520.00 
C 328.35 514.63 268.32 546.07 233.00 596.00
C 263.91 609.92 300.36 610.79 334.00 610.00
C 293.25 643.90 234.02 634.66 189.00 616.00
C 217.83 536.68 309.24 495.52 389.00 520.00
M 811.00 616.00 
C 765.98 634.66 706.73 643.89 666.00 610.00
C 699.75 610.81 736.03 609.94 767.00 596.00
C 731.46 546.81 672.55 513.48 611.00 521.00
C 689.78 494.24 782.44 537.11 811.00 616.00
M 412.00 566.00 
C 418.73 574.71 426.94 583.83 436.23 589.77 C 445.52 595.71 455.57 604.42 466.08 607.92 C 476.58 611.43 488.85 621.88 500.07 621.93 C 511.29 621.97 523.18 611.24 533.69 607.70 C 544.21 604.15 554.53 595.86 563.75 589.75 C 572.96 583.63 581.40 574.83 588.00 566.00
C 590.13 584.39 589.71 608.68 573.25 619.25 C 556.80 629.83 545.40 635.16 527.92 643.92 C 510.45 652.68 490.36 652.97 472.78 644.22 C 455.19 635.48 444.05 630.21 427.30 619.70 C 410.56 609.19 409.58 584.64 412.00 566.00
M 583.00 637.00 
C 581.58 648.62 577.74 660.92 573.68 671.68 C 569.61 682.44 564.06 690.49 558.25 700.25 C 552.44 710.00 545.95 716.29 538.25 725.25 C 530.55 734.21 523.04 737.00 514.30 745.30 C 505.57 753.60 494.92 754.58 485.92 746.08 C 476.92 737.58 470.26 734.53 462.25 725.75 C 454.23 716.97 448.09 710.61 442.08 700.92 C 436.07 691.23 430.81 683.16 426.70 672.31 C 422.58 661.45 418.19 648.90 417.00 637.00
C 426.89 644.61 435.97 649.09 447.08 654.92 C 458.18 660.76 469.75 663.68 481.23 669.77 C 492.71 675.86 506.49 676.13 518.02 670.02 C 529.56 663.91 541.05 661.09 552.22 655.22 C 563.39 649.35 573.09 644.74 583.00 637.00 Z"/>
</g>
<g fill="#F9DA6F" fill-opacity="1.00" stroke="None">
<path d="
M 431.00 246.00 
C 422.87 251.82 417.10 262.38 412.00 271.00
C 437.93 285.02 461.19 309.27 471.00 337.00
C 476.19 320.55 467.04 299.27 459.92 284.08 C 452.81 268.88 442.50 258.37 431.00 246.00 Z"/>
</g>
<g fill="#F9DA6F" fill-opacity="1.00" stroke="None">
<path d="
M 588.00 271.00 
C 582.91 262.37 577.12 251.84 569.00 246.00
C 557.43 258.28 546.77 269.55 539.77 284.77 C 532.78 299.99 523.85 320.61 529.00 337.00
C 538.83 309.25 562.03 285.06 588.00 271.00 Z"/>
</g>
<g fill="#F8D96F" fill-opacity="1.00" stroke="None">
<path d="
M 527.00 309.00 
C 509.00 309.00 491.00 309.00 473.00 309.00
C 475.49 323.48 478.23 340.10 473.00 354.00
C 468.15 342.60 467.82 328.23 458.92 318.08 C 450.02 307.93 437.48 319.18 427.25 326.25 C 417.02 333.32 412.31 348.19 413.00 361.00 C 413.69 373.81 416.81 389.09 424.70 399.30 C 432.58 409.52 440.28 416.97 451.77 422.23 C 463.26 427.48 476.05 433.41 488.00 433.00
C 475.33 424.07 474.97 408.92 470.31 394.70 C 465.64 380.47 452.13 376.50 444.93 365.07 C 437.72 353.64 447.81 333.03 454.00 323.00
C 463.99 336.82 468.19 354.85 472.00 371.00
C 482.83 354.89 483.29 334.14 481.00 315.00
C 494.41 317.16 505.62 317.15 519.00 315.00
C 516.72 334.14 517.17 354.89 528.00 371.00
C 531.81 354.89 536.00 336.83 546.00 323.00
C 552.17 332.88 562.68 354.77 554.92 365.92 C 547.16 377.07 533.65 380.93 529.31 395.31 C 524.96 409.68 524.61 424.09 512.00 433.00
C 523.98 433.37 537.45 427.34 548.92 421.92 C 560.39 416.50 567.96 409.09 575.75 398.75 C 583.53 388.40 586.08 373.87 587.00 361.00 C 587.92 348.13 582.72 332.86 572.25 325.75 C 561.77 318.65 549.22 307.98 540.75 318.75 C 532.28 329.53 531.60 342.17 527.00 354.00
C 522.09 340.18 523.84 323.32 527.00 309.00
M 470.00 421.00 
C 447.40 418.36 431.79 396.29 426.00 376.00
C 454.79 372.08 458.62 403.42 470.00 421.00
M 574.00 376.00 
C 568.20 396.27 552.61 418.38 530.00 421.00
C 541.44 403.45 545.22 372.08 574.00 376.00 Z"/>
</g>
<g fill="#FCDC71" fill-opacity="1.00" stroke="None">
<path d="
M 375.00 437.00 
C 379.29 440.66 383.38 444.76 387.00 449.00
C 397.13 460.27 405.86 472.69 414.00 485.00
C 400.15 388.42 301.46 325.03 208.00 328.00
C 216.68 403.68 262.68 493.85 347.00 504.00
C 307.10 467.89 261.14 427.29 255.00 372.00
C 299.95 382.65 339.60 406.75 375.00 437.00 Z"/>
</g>
<g fill="#FCDC71" fill-opacity="1.00" stroke="None">
<path d="
M 615.00 447.00 
C 618.37 443.06 622.11 439.33 626.00 436.00
C 660.29 405.36 701.20 383.20 745.00 372.00
C 738.70 427.30 693.02 467.83 653.00 504.00
C 737.30 493.88 783.35 403.64 792.00 328.00
C 743.50 328.47 692.02 342.98 654.23 372.23 C 616.44 401.48 594.24 440.03 586.00 485.00
C 594.33 471.63 604.45 459.35 615.00 447.00 Z"/>
</g>
<g fill="#F8D96F" fill-opacity="1.00" stroke="None">
<path d="
M 409.00 355.00 
C 403.57 374.61 405.41 398.39 414.23 416.77 C 423.05 435.15 442.36 441.53 461.00 443.00
C 462.93 461.46 477.53 490.97 499.99 490.99 C 522.45 491.01 537.08 461.42 539.00 443.00
C 557.99 441.50 576.63 435.18 585.70 416.69 C 594.76 398.21 595.51 375.56 592.00 355.00
C 589.70 368.94 587.75 389.19 578.92 400.92 C 570.09 412.66 562.94 423.93 548.07 428.07 C 533.21 432.22 526.65 442.41 517.75 455.75 C 508.86 469.09 491.09 468.94 482.25 455.75 C 473.40 442.57 466.69 432.09 452.08 427.92 C 437.46 423.75 429.56 412.97 420.92 401.08 C 412.27 389.19 409.83 369.74 409.00 355.00 Z"/>
</g>
<g fill="#262121" fill-opacity="1.00" stroke="None">
<path d="
M 470.00 421.00 
C 458.62 403.42 454.79 372.08 426.00 376.00
C 431.79 396.29 447.40 418.36 470.00 421.00 Z"/>
</g>
<g fill="#262121" fill-opacity="1.00" stroke="None">
<path d="
M 574.00 376.00 
C 545.22 372.08 541.44 403.45 530.00 421.00
C 552.61 418.38 568.20 396.27 574.00 376.00 Z"/>
</g>
<g fill="#8B7942" fill-opacity="1.00" stroke="None">
<path d="
M 615.00 447.00 
C 618.54 443.46 622.41 439.59 626.00 436.00
C 622.11 439.33 618.37 443.06 615.00 447.00 Z"/>
</g>
<g fill="#897741" fill-opacity="1.00" stroke="None">
<path d="
M 387.00 449.00 
C 383.38 444.76 379.29 440.66 375.00 437.00
C 378.87 440.87 383.08 445.08 387.00 449.00 Z"/>
</g>
<g fill="#F8D96F" fill-opacity="1.00" stroke="None">
<path d="
M 459.00 450.00 
C 437.96 463.37 436.60 497.12 456.00 513.00
C 448.56 499.68 457.13 482.71 471.00 478.00
C 463.48 470.49 460.42 460.10 459.00 450.00 Z"/>
</g>
<g fill="#F8D96F" fill-opacity="1.00" stroke="None">
<path d="
M 544.00 513.00 
C 563.34 497.17 562.12 463.32 541.00 450.00
C 539.54 460.16 536.56 470.44 529.00 478.00
C 542.86 482.68 551.45 499.73 544.00 513.00 Z"/>
</g>
<g fill="#FCDC71" fill-opacity="1.00" stroke="None">
<path d="
M 428.00 487.00 
C 421.18 498.76 423.39 511.89 418.98 524.98 C 414.56 538.06 417.32 550.29 428.75 557.25 C 440.19 564.21 444.49 570.01 455.25 576.75 C 466.02 583.48 473.37 586.57 484.31 593.70 C 495.24 600.82 505.40 600.25 516.31 593.31 C 527.21 586.36 534.66 583.07 545.30 576.30 C 555.95 569.53 560.56 563.89 571.92 556.92 C 583.28 549.95 585.20 536.78 580.99 524.01 C 576.78 511.23 578.46 498.51 572.00 487.00
C 568.44 496.99 562.97 506.02 556.75 514.75 C 550.53 523.48 543.61 528.89 536.25 537.25 C 528.88 545.61 520.78 548.17 512.75 556.75 C 504.72 565.32 494.64 564.84 486.70 556.30 C 478.75 547.77 470.65 544.97 463.25 536.75 C 455.85 528.53 449.12 522.69 442.92 514.08 C 436.71 505.48 431.27 496.97 428.00 487.00 Z"/>
</g>
<g fill="#FADB70" fill-opacity="1.00" stroke="None">
<path d="
M 389.00 520.00 
C 309.24 495.52 217.83 536.68 189.00 616.00
C 234.02 634.66 293.25 643.90 334.00 610.00
C 300.36 610.79 263.91 609.92 233.00 596.00
C 268.32 546.07 328.35 514.63 389.00 520.00 Z"/>
</g>
<g fill="#FBDB70" fill-opacity="1.00" stroke="None">
<path d="
M 811.00 616.00 
C 782.44 537.11 689.78 494.24 611.00 521.00
C 672.55 513.48 731.46 546.81 767.00 596.00
C 736.03 609.94 699.75 610.81 666.00 610.00
C 706.73 643.89 765.98 634.66 811.00 616.00 Z"/>
</g>
<g fill="#FBDC70" fill-opacity="1.00" stroke="None">
<path d="
M 412.00 566.00 
C 409.58 584.64 410.56 609.19 427.30 619.70 C 444.05 630.21 455.19 635.48 472.78 644.22 C 490.36 652.97 510.45 652.68 527.92 643.92 C 545.40 635.16 556.80 629.83 573.25 619.25 C 589.71 608.68 590.13 584.39 588.00 566.00
C 581.40 574.83 572.96 583.63 563.75 589.75 C 554.53 595.86 544.21 604.15 533.69 607.70 C 523.18 611.24 511.29 621.97 500.07 621.93 C 488.85 621.88 476.58 611.43 466.08 607.92 C 455.57 604.42 445.52 595.71 436.23 589.77 C 426.94 583.83 418.73 574.71 412.00 566.00 Z"/>
</g>
<g fill="#FCDD71" fill-opacity="1.00" stroke="None">
<path d="
M 583.00 637.00 
C 573.09 644.74 563.39 649.35 552.22 655.22 C 541.05 661.09 529.56 663.91 518.02 670.02 C 506.49 676.13 492.71 675.86 481.23 669.77 C 469.75 663.68 458.18 660.76 447.08 654.92 C 435.97 649.09 426.89 644.61 417.00 637.00
C 418.19 648.90 422.58 661.45 426.70 672.31 C 430.81 683.16 436.07 691.23 442.08 700.92 C 448.09 710.61 454.23 716.97 462.25 725.75 C 470.26 734.53 476.92 737.58 485.92 746.08 C 494.92 754.58 505.57 753.60 514.30 745.30 C 523.04 737.00 530.55 734.21 538.25 725.25 C 545.95 716.29 552.44 710.00 558.25 700.25 C 564.06 690.49 569.61 682.44 573.68 671.68 C 577.74 660.92 581.58 648.62 583.00 637.00 Z"/>
</g>
</svg>